<?xml version="1.0" encoding="iso-8859-1"?>
<!-- Generator: Adobe Illustrator 19.0.0, SVG Export Plug-In . SVG Version: 6.00 Build 0)  -->
<svg version="1.1" id="Capa_1" xmlns="http://www.w3.org/2000/svg" xmlns:xlink="http://www.w3.org/1999/xlink" x="0px" y="0px"
	 viewBox="0 0 512 512" style="enable-background:new 0 0 512 512;" xml:space="preserve">
<path style="fill:#009B3A;" d="M512,381.523c0,28.077-22.297,50.374-49.548,50.374H49.548C22.297,431.897,0,409.6,0,381.523V130.477
	C0,102.4,22.297,80.103,49.548,80.103h412.903c27.252,0,49.548,22.297,49.548,50.374V381.523z"/>
<path style="fill:#007C29;" d="M49.548,80.103h412.903c27.252,0,49.548,22.297,49.548,50.374v251.045
	c0,28.077-22.297,50.374-49.548,50.374"/>
<g>
	<path style="fill:#006D21;" d="M49.548,80.103h412.903c27.252,0,49.548,22.297,49.548,50.374v91.665"/>
	<path style="fill:#006D21;" d="M512,381.523c0,28.077-22.297,50.374-49.548,50.374H49.548C22.297,431.897,0,409.6,0,381.523"/>
</g>
<path style="fill:#FEDF00;" d="M31.381,256L256,399.69L480.619,256L256,112.31L31.381,256z"/>
<g>
	<polygon style="fill:#FCC000;" points="256,399.69 284.077,381.523 227.923,381.523 	"/>
	<polygon style="fill:#FCC000;" points="159.381,174.245 352.619,337.755 480.619,256 256,112.31 	"/>
</g>
<circle style="fill:#002776;" cx="256" cy="256" r="94.968"/>
<path style="fill:#021E47;" d="M256,161.032c-28.903,0-54.503,13.213-71.845,33.032L328.671,317.11
	c14.039-16.516,22.297-37.987,22.297-61.11C350.968,203.974,308.026,161.032,256,161.032z"/>
<path style="fill:#FFFFFF;" d="M168.969,217.951c-2.09,4.774-3.8,9.752-5.089,14.897c12.736-2.235,25.858-3.366,39.268-3.274
	c55.192,0,105.461,20.538,143.63,54.395c1.47-4.776,2.569-9.715,3.273-14.78c-40.006-33.48-91.525-53.653-147.73-53.653
	C190.995,215.535,179.861,216.37,168.969,217.951z"/>
<g>
</g>
<g>
</g>
<g>
</g>
<g>
</g>
<g>
</g>
<g>
</g>
<g>
</g>
<g>
</g>
<g>
</g>
<g>
</g>
<g>
</g>
<g>
</g>
<g>
</g>
<g>
</g>
<g>
</g>
</svg>
