<?xml version="1.0" encoding="iso-8859-1"?>
<!-- Generator: Adobe Illustrator 19.0.0, SVG Export Plug-In . SVG Version: 6.00 Build 0)  -->
<svg version="1.1" id="Capa_1" xmlns="http://www.w3.org/2000/svg" xmlns:xlink="http://www.w3.org/1999/xlink" x="0px" y="0px"
	 viewBox="0 0 496 496" style="enable-background:new 0 0 496 496;" xml:space="preserve">
<path style="fill:#E70013;" d="M496,369.6c0,27.2-21.6,46.4-48,46.4H48c-26.4,0-48-19.2-48-46.4V126.4C0,99.2,21.6,80,48,80h400
	c26.4,0,48,19.2,48,46.4V369.6z"/>
<path style="fill:#D30B0B;" d="M48,80h400c26.4,0,48,19.2,48,46.4v243.2c0,27.2-25.6,46.4-52,46.4"/>
<g>
	<path style="fill:#C10000;" d="M48,80h400c26.4,0,48,19.2,48,46.4V216"/>
	<path style="fill:#C10000;" d="M496,368.8c0,30.4-21.6,47.2-48,47.2H48c-26.4,0-48-20.8-48-48"/>
</g>
<path style="fill:#FFFFFF;" d="M248,137.6c-60.8,0-110.4,49.6-110.4,110.4S187.2,358.4,248,358.4S358.4,308.8,358.4,248
	S308.8,137.6,248,137.6z M310.4,277.6l-33.6-11.2L256,295.2v-36L221.6,248l34.4-11.2v-36l20.8,29.6l34.4-11.2L289.6,248L310.4,277.6
	z M270.4,181.6c-36.8,0-66.4,29.6-66.4,66.4s29.6,66.4,66.4,66.4c17.6,0,32.8-6.4,44.8-17.6C300,317.6,276,331.2,248,331.2
	c-45.6,0-83.2-36.8-83.2-83.2c0-45.6,36.8-83.2,83.2-83.2c27.2,0,52,13.6,67.2,34.4C303.2,188,287.2,181.6,270.4,181.6z"/>
<path style="fill:#C6C1AF;" d="M248,137.6c-33.6,0-64,15.2-84,39.2l20.8,17.6c15.2-17.6,37.6-29.6,63.2-29.6
	c27.2,0,52,13.6,67.2,34.4c-12-11.2-28-17.6-44.8-17.6c-25.6,0-47.2,14.4-58.4,35.2l29.6,24.8l15.2-4.8v-36l20.8,29.6l34.4-11.2
	L289.6,248l20.8,29.6l-33.6-11.2l-2.4,4l36,31.2c1.6-1.6,3.2-2.4,4.8-4c-1.6,1.6-2.4,3.2-4,4.8L332,320c16.8-19.2,26.4-44,26.4-72
	C358.4,187.2,308.8,137.6,248,137.6z"/>
<g>
</g>
<g>
</g>
<g>
</g>
<g>
</g>
<g>
</g>
<g>
</g>
<g>
</g>
<g>
</g>
<g>
</g>
<g>
</g>
<g>
</g>
<g>
</g>
<g>
</g>
<g>
</g>
<g>
</g>
</svg>
