<?xml version="1.0" encoding="iso-8859-1"?>
<!-- Generator: Adobe Illustrator 19.0.0, SVG Export Plug-In . SVG Version: 6.00 Build 0)  -->
<svg version="1.1" id="Layer_1" xmlns="http://www.w3.org/2000/svg" xmlns:xlink="http://www.w3.org/1999/xlink" x="0px" y="0px"
	 viewBox="0 0 496 496" style="enable-background:new 0 0 496 496;" xml:space="preserve">
<path style="fill:#D32030;" d="M0,304.8v64.8c0,27.2,21.6,48.8,48,48.8h400c26.4,0,48-21.6,48-48.8v-64.8H0z"/>
<path style="fill:#C11025;" d="M448,418.4c26.4,0,48-21.6,48-48.8v-64.8H315.2L448,418.4z"/>
<path style="fill:#D32030;" d="M448,77.6H48c-26.4,0-48,21.6-48,48.8v64.8h496v-64.8C496,99.2,474.4,77.6,448,77.6z"/>
<path style="fill:#C11025;" d="M448,77.6H48l132.8,113.6H496v-64.8C496,99.2,474.4,77.6,448,77.6z"/>
<path style="fill:#A5001C;" d="M448,77.6H48l370.4,113.6H496v-64.8C496,99.2,474.4,77.6,448,77.6z"/>
<polygon style="fill:#FFD034;" points="0,140.8 0,189.6 0,191.2 0,304.8 0,306.4 0,355.2 496,355.2 496,306.4 496,304.8 496,191.2 
	496,189.6 496,140.8 "/>
<polygon style="fill:#FFBC00;" points="180,189.6 180,189.6 316,306.4 373.6,355.2 496,355.2 496,306.4 496,304.8 496,191.2 
	496,189.6 496,140.8 122.4,140.8 "/>
<polygon style="fill:#FFAA00;" points="255.2,140.8 414.4,189.6 414.4,189.6 496,214.4 496,191.2 496,189.6 496,140.8 "/>
<g>
	<path style="fill:#A5001C;" d="M496,369.6c0,27.2-21.6,48.8-48,48.8H48c-26.4,0-48-21.6-48-48.8"/>
	<path style="fill:#A5001C;" d="M69.6,244.8v33.6c0,16.8,13.6,30.4,30.4,30.4s30.4-13.6,30.4-30.4v-33.6L69.6,244.8L69.6,244.8z"/>
	<rect x="137.6" y="249.6" style="fill:#A5001C;" width="9.6" height="46.4"/>
	<path style="fill:#A5001C;" d="M151.2,301.6c-0.8-0.8-1.6-0.8-3.2-0.8c-0.8,0-2.4,0-3.2,0.8s-1.6,0.8-3.2,0.8c-0.8,0-2.4,0-3.2-0.8
		c-0.8,0-1.6-0.8-3.2-0.8s-2.4,0-3.2,0.8s-1.6,0.8-3.2,0.8v1.6c0.8,0,2.4,0,3.2-0.8c0.8,0,1.6-0.8,3.2-0.8s2.4,0,3.2,0.8
		s1.6,0.8,3.2,0.8c0.8,0,2.4,0,3.2-0.8c0.8,0,1.6-0.8,3.2-0.8c0.8,0,2.4,0,3.2,0.8s2.4,0.8,3.2,0.8v-1.6
		C153.6,302.4,152,302.4,151.2,301.6z"/>
	<path style="fill:#A5001C;" d="M148.8,304.8c-0.8,0-2.4,0-3.2,0.8s-1.6,0.8-3.2,0.8c-0.8,0-2.4,0-3.2-0.8c-0.8,0-1.6-0.8-3.2-0.8
		s-2.4,0-3.2,0.8s-1.6,0.8-3.2,0.8v1.6c0.8,0,2.4,0,3.2-0.8c0.8,0,1.6-0.8,3.2-0.8s2.4,0,3.2,0.8s1.6,0.8,3.2,0.8
		c0.8,0,2.4,0,3.2-0.8c0.8,0,1.6-0.8,3.2-0.8c0.8,0,2.4,0,3.2,0.8s1.6,0.8,3.2,0.8v-1.6c-0.8,0-2.4,0-3.2-0.8
		C150.4,304.8,149.6,304.8,148.8,304.8z"/>
	<path style="fill:#A5001C;" d="M148.8,308c-0.8,0-2.4,0-3.2,0.8s-1.6,0.8-3.2,0.8c-0.8,0-2.4,0-3.2-0.8c-0.8,0-1.6-0.8-3.2-0.8
		s-2.4,0-3.2,0.8s-1.6,0.8-3.2,0.8v1.6c0.8,0,2.4,0,3.2-0.8c0.8,0,1.6-0.8,3.2-0.8s2.4,0,3.2,0.8s1.6,0.8,3.2,0.8
		c0.8,0,2.4,0,3.2-0.8c0.8,0,1.6-0.8,3.2-0.8c0.8,0,2.4,0,3.2,0.8s1.6,0.8,3.2,0.8v-1.6c-0.8,0-2.4,0-3.2-0.8
		C150.4,308.8,149.6,308,148.8,308z"/>
	<path style="fill:#A5001C;" d="M148.8,296.8c0,0.8-0.8,1.6-1.6,1.6h-10.4c-0.8,0-1.6-0.8-1.6-1.6l0,0c0-0.8,0.8-1.6,1.6-1.6h10.4
		C148,295.2,148.8,296,148.8,296.8L148.8,296.8z"/>
	<path style="fill:#A5001C;" d="M148.8,248.8c0,0.8-0.8,1.6-1.6,1.6h-10.4c-0.8,0-1.6-0.8-1.6-1.6l0,0c0-0.8,0.8-1.6,1.6-1.6h10.4
		C148,248,148.8,248,148.8,248.8L148.8,248.8z"/>
</g>
<g>
	<rect x="53.6" y="249.6" style="fill:#D32030;" width="9.6" height="46.4"/>
	<path style="fill:#D32030;" d="M67.2,301.6c-0.8-0.8-1.6-0.8-3.2-0.8c-0.8,0-2.4,0-3.2,0.8c-0.8,0.8-1.6,0.8-3.2,0.8
		c-0.8,0-2.4,0-3.2-0.8c-0.8,0-1.6-0.8-3.2-0.8c-0.8,0-2.4,0-3.2,0.8s-1.6,0.8-3.2,0.8v1.6c0.8,0,2.4,0,3.2-0.8
		c0.8,0,1.6-0.8,3.2-0.8c0.8,0,2.4,0,3.2,0.8c1.6,0.8,2.4,0.8,4,0.8c0.8,0,2.4,0,3.2-0.8c0.8,0,1.6-0.8,3.2-0.8c0.8,0,2.4,0,3.2,0.8
		c0,0.8,0.8,0.8,2.4,0.8v-1.6C68.8,302.4,68,302.4,67.2,301.6z"/>
	<path style="fill:#D32030;" d="M64,304.8c-0.8,0-2.4,0-3.2,0.8c-0.8,0.8-1.6,0.8-3.2,0.8c-0.8,0-2.4,0-3.2-0.8
		c-0.8,0-1.6-0.8-3.2-0.8c-0.8,0-2.4,0-3.2,0.8s-1.6,0.8-3.2,0.8v1.6c0.8,0,2.4,0,3.2-0.8c0.8,0,1.6-0.8,3.2-0.8
		c0.8,0,2.4,0,3.2,0.8s1.6,0.8,3.2,0.8c0.8,0,2.4,0,3.2-0.8c0.8,0,1.6-0.8,3.2-0.8c0.8,0,2.4,0,3.2,0.8c0.8,0.8,1.6,0.8,3.2,0.8
		v-1.6c-0.8,0-2.4,0-3.2-0.8S65.6,304.8,64,304.8z"/>
	<path style="fill:#D32030;" d="M64,308c-0.8,0-2.4,0-3.2,0.8c-0.8,0.8-1.6,0.8-3.2,0.8c-0.8,0-2.4,0-3.2-0.8
		c-0.8,0-1.6-0.8-3.2-0.8c-0.8,0-2.4,0-3.2,0.8s-1.6,0.8-3.2,0.8v1.6c0.8,0,2.4,0,3.2-0.8c0.8,0,1.6-0.8,3.2-0.8
		c0.8,0,2.4,0,3.2,0.8s1.6,0.8,3.2,0.8c0.8,0,2.4,0,3.2-0.8c0.8,0,1.6-0.8,3.2-0.8c0.8,0,2.4,0,3.2,0.8c0.8,0.8,1.6,0.8,3.2,0.8
		v-1.6c-0.8,0-2.4,0-3.2-0.8C66.4,308.8,65.6,308,64,308z"/>
	<path style="fill:#D32030;" d="M64.8,296.8c0,0.8-0.8,1.6-1.6,1.6H52.8c-0.8,0-1.6-0.8-1.6-1.6l0,0c0-0.8,0.8-1.6,1.6-1.6h10.4
		C64,295.2,64.8,296,64.8,296.8L64.8,296.8z"/>
	<path style="fill:#D32030;" d="M64.8,248.8c0,0.8-0.8,1.6-1.6,1.6H52.8c-0.8,0-1.6-0.8-1.6-1.6l0,0c0.8-0.8,1.6-0.8,1.6-0.8h10.4
		C64,248,64.8,248,64.8,248.8L64.8,248.8z"/>
</g>
<g>
	<path style="fill:#A5001C;" d="M124,238.4c0-1.6-0.8-2.4-2.4-2.4l0,0c0-1.6-9.6-2.4-21.6-2.4s-21.6,0.8-21.6,2.4l0,0
		c-0.8,0-1.6,1.6-1.6,2.4c0,0.8,0.8,2.4,2.4,2.4c0,1.6,9.6,2.4,21.6,2.4s21.6-0.8,21.6-2.4C123.2,240.8,124,240,124,238.4z"/>
	<path style="fill:#A5001C;" d="M137.6,217.6C137.6,217.6,136.8,217.6,137.6,217.6L137.6,217.6L137.6,217.6l0.8-0.8l0,0
		c0.8-1.6,1.6-3.2,1.6-4.8c0-3.2-2.4-6.4-4.8-8l0.8,0.8c-2.4-1.6-6.4-3.2-10.4-3.2c-0.8,0-1.6,0-3.2,0c0,0,0,0-0.8,0
		c0,0-0.8,0-0.8,0.8c0,0,0,0-0.8,0c0,0,0,0,0,0.8l0,0c-0.8-0.8-1.6-1.6-2.4-2.4l0,0c-1.6-1.6-4.8-3.2-8-3.2c-2.4,0-4.8,0.8-7.2,1.6
		c0,0.8,0,0.8,0,1.6c1.6-0.8,4-1.6,6.4-1.6c4.8,0,9.6,2.4,9.6,6.4v0.8c0,1.6-0.8,2.4-1.6,3.2c-2.4,0-4-0.8-5.6-1.6
		c-2.4-0.8-5.6-1.6-8.8-1.6c0-0.8,0-1.6,0-2.4c0,0,0,0,0-0.8c0,0,0,0,0-0.8c0-1.6,0-2.4,0-3.2s-1.6-1.6-2.4-1.6
		c1.6,0,2.4-0.8,3.2-1.6l0,0l0,0c0,0,0-0.8,0-1.6l0,0c0-1.6-0.8-2.4-2.4-3.2v-2.4h1.6v-1.6h-1.6v-1.6h-1.6v1.6h-1.6v1.6h1.6v2.4
		c-1.6,0-2.4,1.6-2.4,3.2c0,0.8,0,0.8,0,1.6l0,0c0.8,0.8,1.6,1.6,2.4,1.6c-0.8,0-1.6,0.8-1.6,0.8s0,0,0-0.8s0-0.8-0.8-0.8
		s-0.8,0-0.8,0.8s0,0.8,0.8,0.8h0.8l-0.8,0.8l0,0c-1.6-0.8-4-1.6-7.2-1.6s-6.4,0.8-8,3.2l0,0c-0.8,0.8-2.4,1.6-2.4,2.4l0,0
		c0,0,0,0,0-0.8c0,0,0,0-0.8,0c0,0,0-0.8-0.8-0.8h-0.8c-0.8,0-1.6,0-3.2,0c-4,0-8,1.6-10.4,3.2L64,204c-3.2,1.6-4.8,4.8-4.8,8
		c0,1.6,0.8,4,1.6,4.8l0,0l0.8,0.8l0,0c-0.8,0-1.6,0.8-1.6,2.4c0,0,1.6,0,2.4,0.8s1.6,2.4,1.6,2.4l0,0c0,0.8,0,0.8,0,1.6
		c0.8,0.8,0.8,0.8,1.6,0c0.8,0.8,1.6,2.4,3.2,3.2c0.8,0.8,2.4,0.8,3.2,0.8c0,0,0,0,0.8,0l0,0H72c-0.8,0-0.8,0.8-0.8,0.8
		c0,0.8,0.8,0.8,0.8,0.8l0,0c0,0,0.8,0,1.6,0.8l0.8,0.8l1.6,0.8l0,0c0,0.8,0,1.6,0,1.6c6.4-1.6,14.4-3.2,24-3.2s18.4,1.6,24,3.2
		c-0.8,0-0.8-0.8,0-1.6l0,0l1.6-0.8l-0.8-0.8c0.8-0.8,1.6-0.8,1.6-0.8l0,0c0.8,0,0.8,0,0.8-0.8s0-0.8-0.8-0.8s-0.8,0-1.6,0l0,0
		l0.8,0.8c0.8,0,2.4,0,3.2-0.8c1.6-0.8,2.4-2.4,3.2-3.2c0.8,0,0.8,0,1.6,0c0.8-0.8,0.8-1.6,0-1.6l0,0c0,0,0.8-1.6,1.6-2.4
		c0.8-0.8,2.4-0.8,2.4-0.8C140,219.2,138.4,217.6,137.6,217.6z M78.4,204L78.4,204c-0.8,0-0.8,0-0.8,0.8s0,0.8,0.8,0.8v0.8
		c0,0-0.8,0-0.8,0.8s0,0.8,0.8,0.8l0,0v0.8c0,0,0,0,0,0.8c-0.8,0-1.6,0-2.4,0c-2.4,0-4.8,0.8-8,1.6c-1.6,0.8-2.4,1.6-4,1.6
		c-0.8-0.8-0.8-1.6-0.8-3.2c0-0.8,0-1.6,0.8-2.4c1.6-3.2,6.4-4.8,12-4.8c1.6,0,2.4,0,3.2,0l0,0l0,0l0,0l0,0
		C79.2,203.2,79.2,203.2,78.4,204z M97.6,202.4C97.6,202.4,96.8,203.2,97.6,202.4c0,1.6,0,2.4,0,3.2c-4,0-7.2,0.8-9.6,1.6
		c-1.6,0.8-3.2,0.8-5.6,1.6c-0.8-0.8-1.6-2.4-1.6-3.2v-0.8c0-3.2,4-6.4,9.6-6.4c2.4,0,4.8,0.8,6.4,1.6v-0.8
		C97.6,200,97.6,200.8,97.6,202.4C96.8,202.4,97.6,202.4,97.6,202.4z M138.4,207.2c0-0.8-0.8-1.6-1.6-2.4
		C137.6,205.6,137.6,206.4,138.4,207.2z M136,212.8c-0.8-0.8-2.4-1.6-4-2.4c-3.2-1.6-6.4-1.6-8-1.6c-0.8,0-1.6,0-1.6,0l0,0
		c0,0,0-0.8-0.8-0.8v-0.8l0,0c0.8,0,0.8,0,0.8-0.8c0,0,0-0.8-0.8-0.8v-0.8c0.8,0,0.8,0,0.8-0.8s0-0.8-0.8-0.8l0,0c0,0,0-0.8-0.8-0.8
		l0,0l0,0l0,0l0,0c0.8,0,2.4,0,3.2,0c5.6,0,10.4,2.4,12,4.8c0,0.8,0.8,1.6,0.8,2.4C137.6,211.2,136.8,212,136,212.8z"/>
	<ellipse style="fill:#A5001C;" cx="140" cy="217.6" rx="0.8" ry="0.8"/>
	<ellipse style="fill:#A5001C;" cx="140.8" cy="215.2" rx="0.8" ry="0.8"/>
	<ellipse style="fill:#A5001C;" cx="141.6" cy="213.6" rx="0.8" ry="0.8"/>
	<circle style="fill:#A5001C;" cx="141.6" cy="210.4" r="0.8"/>
	<circle style="fill:#A5001C;" cx="140.8" cy="208" r="0.8"/>
	<path style="fill:#A5001C;" d="M140,206.4c0.8,0,0.8,0,0.8-0.8s0-0.8-0.8-0.8s-0.8,0-0.8,0.8S139.2,206.4,140,206.4z"/>
	<ellipse style="fill:#A5001C;" cx="137.6" cy="204" rx="0.8" ry="0.8"/>
	<ellipse style="fill:#A5001C;" cx="136" cy="202.4" rx="0.8" ry="0.8"/>
	<ellipse style="fill:#A5001C;" cx="133.6" cy="201.6" rx="0.8" ry="0.8"/>
	<circle style="fill:#A5001C;" cx="131.2" cy="200" r="0.8"/>
	<ellipse style="fill:#A5001C;" cx="128" cy="200" rx="0.8" ry="0.8"/>
	<path style="fill:#A5001C;" d="M125.6,200.8c0.8,0,0.8,0,0.8-0.8s-0.8-0.8-0.8-0.8c-0.8,0-0.8,0-0.8,0.8
		C124.8,200,124.8,200.8,125.6,200.8z"/>
	<circle style="fill:#A5001C;" cx="123.2" cy="200" r="0.8"/>
	<circle style="fill:#A5001C;" cx="120.8" cy="200" r="0.8"/>
	<ellipse style="fill:#A5001C;" cx="118.4" cy="198.4" rx="0.8" ry="0.8"/>
	<ellipse style="fill:#A5001C;" cx="116" cy="196.8" rx="0.8" ry="0.8"/>
	<circle style="fill:#A5001C;" cx="113.6" cy="196" r="0.8"/>
	<ellipse style="fill:#A5001C;" cx="111.2" cy="196" rx="0.8" ry="0.8"/>
	<ellipse style="fill:#A5001C;" cx="108.8" cy="196" rx="0.8" ry="0.8"/>
	<ellipse style="fill:#A5001C;" cx="105.6" cy="196" rx="0.8" ry="0.8"/>
	<circle style="fill:#A5001C;" cx="103.2" cy="196.8" r="0.8"/>
	<ellipse style="fill:#A5001C;" cx="60.8" cy="217.6" rx="0.8" ry="0.8"/>
	<ellipse style="fill:#A5001C;" cx="60" cy="215.2" rx="0.8" ry="0.8"/>
	<ellipse style="fill:#A5001C;" cx="59.2" cy="213.6" rx="0.8" ry="0.8"/>
	<ellipse style="fill:#A5001C;" cx="59.2" cy="210.4" rx="0.8" ry="0.8"/>
	<ellipse style="fill:#A5001C;" cx="60" cy="208" rx="0.8" ry="0.8"/>
	<ellipse style="fill:#A5001C;" cx="60.8" cy="205.6" rx="0.8" ry="0.8"/>
	<circle style="fill:#A5001C;" cx="62.4" cy="204" r="0.8"/>
	<ellipse style="fill:#A5001C;" cx="64.8" cy="202.4" rx="0.8" ry="0.8"/>
	<ellipse style="fill:#A5001C;" cx="67.2" cy="201.6" rx="0.8" ry="0.8"/>
	<circle style="fill:#A5001C;" cx="69.6" cy="200" r="0.8"/>
	<circle style="fill:#A5001C;" cx="72.8" cy="200" r="0.8"/>
	<ellipse style="fill:#A5001C;" cx="75.2" cy="200" rx="0.8" ry="0.8"/>
	<ellipse style="fill:#A5001C;" cx="77.6" cy="200" rx="0.8" ry="0.8"/>
	<circle style="fill:#A5001C;" cx="80" cy="200" r="0.8"/>
	<ellipse style="fill:#A5001C;" cx="82.4" cy="198.4" rx="0.8" ry="0.8"/>
	<ellipse style="fill:#A5001C;" cx="84.8" cy="196.8" rx="0.8" ry="0.8"/>
	<ellipse style="fill:#A5001C;" cx="87.2" cy="196" rx="0.8" ry="0.8"/>
	<ellipse style="fill:#A5001C;" cx="89.6" cy="196" rx="0.8" ry="0.8"/>
	<ellipse style="fill:#A5001C;" cx="92" cy="196" rx="0.8" ry="0.8"/>
	<ellipse style="fill:#A5001C;" cx="95.2" cy="196" rx="0.8" ry="0.8"/>
</g>
<g>
	<path style="fill:#D32030;" d="M64,247.2C64,246.4,64,246.4,64,247.2L64,247.2c-0.8-0.8-3.2-0.8-5.6-0.8c-3.2,0-5.6,0-5.6,0.8l0,0
		c0,0,0,0,0,0.8c0,0,0,0.8,0.8,0.8c0,0,2.4,0.8,5.6,0.8S63.2,248,64,247.2L64,247.2z"/>
	<path style="fill:#D32030;" d="M67.2,241.6L67.2,241.6L67.2,241.6L67.2,241.6L67.2,241.6L67.2,241.6c0.8-0.8,0.8-0.8,0.8-1.6
		s-0.8-1.6-1.6-1.6l0,0c-0.8-0.8-1.6-0.8-2.4-0.8h-0.8l0,0l0,0l0,0l0,0l0,0c0,0,0-0.8-0.8-0.8l0,0c-0.8-0.8-0.8-0.8-2.4-0.8
		c-0.8,0-1.6,0-1.6,0.8l0,0c0.8,0,0.8-0.8,1.6-0.8c1.6,0,2.4,0.8,2.4,1.6l0,0v0.8c-0.8,0-0.8,0-1.6,0c-0.8,0-1.6,0-2.4-0.8
		c0,0,0,0,0-0.8l0,0l0,0V236c0,0,0-0.8-0.8-0.8c0,0,0.8,0,0.8-0.8l0,0l0,0l0,0l0,0c0,0,0-0.8-0.8-0.8v-0.8h0.8V232h0v-0.8l0,0v0.8
		h-0.8v0.8h0.8v0.8c0,0-0.8,0-0.8,0.8l0,0l0,0c0,0,0,0.8,0.8,0.8c0,0,0,0-0.8,0l0,0l0,0l0,0l0,0l0,0l0,0l0,0c-0.8,0-0.8-0.8-1.6-0.8
		c-0.8,0-1.6,0-2.4,0.8l0,0c0,0-0.8,0-0.8,0.8l0,0l0,0l0,0l0,0l0,0H52c-0.8,0-1.6,0-2.4,0.8l0,0c-0.8,0.8-1.6,0.8-1.6,1.6
		s0,0.8,0.8,1.6l0,0l0,0l0,0c0,0-0.8,0-0.8,0.8h0.8l0.8,0.8l0,0c0,0,0,0,0,0.8l0,0c0,0,0,0.8,0.8,0.8h0.8l0,0l0,0l0,0l0,0l0,0l0,0
		l0,0l0,0l0,0l0,0c0,0,0,0,0,0.8c1.6-0.8,3.2-0.8,5.6-0.8c2.4,0,4.8,0,5.6,0.8c0,0,0,0,0-0.8l0,0l0,0l0,0l0,0l0,0l0,0l0,0l0,0l0,0
		l0,0h0.8l0.8-0.8l0,0c0,0,0,0,0-0.8l0,0C66.4,243.2,67.2,242.4,67.2,241.6C67.2,242.4,68,242.4,67.2,241.6
		C68,242.4,67.2,241.6,67.2,241.6z M52.8,238.4L52.8,238.4L52.8,238.4C52.8,238.4,52.8,239.2,52.8,238.4
		C52.8,239.2,52.8,239.2,52.8,238.4C52.8,239.2,52.8,239.2,52.8,238.4c0,0.8,0,0.8,0,0.8l0,0l0,0l0,0c0,0,0,0-0.8,0s-1.6,0-1.6,0.8
		c0,0-0.8,0-0.8,0.8V240v-0.8c0-0.8,1.6-1.6,3.2-1.6C52.8,238.4,52.8,238.4,52.8,238.4L52.8,238.4L52.8,238.4L52.8,238.4L52.8,238.4
		L52.8,238.4z M57.6,238.4L57.6,238.4L57.6,238.4c-0.8,0.8-1.6,0.8-2.4,0.8c0,0-0.8,0-1.6,0v-0.8l0,0c0-0.8,0.8-1.6,2.4-1.6
		C56.8,237.6,56.8,237.6,57.6,238.4C57.6,237.6,57.6,237.6,57.6,238.4C57.6,237.6,57.6,237.6,57.6,238.4L57.6,238.4z M67.2,239.2
		L67.2,239.2L67.2,239.2z M67.2,240.8c0,0-0.8,0-0.8-0.8c-0.8,0-1.6,0-2.4,0c0,0,0,0-0.8,0l0,0l0,0l0,0l0,0l0,0l0,0l0,0l0,0l0,0l0,0
		l0,0l0,0l0,0l0,0l0,0H64c1.6,0,2.4,0.8,3.2,1.6C67.2,239.2,67.2,240,67.2,240.8C67.2,240,67.2,240.8,67.2,240.8z"/>
</g>
<g>
	<path style="fill:#A5001C;" d="M68,239.2L68,239.2L68,239.2C68,239.2,67.2,239.2,68,239.2C67.2,239.2,68,239.2,68,239.2z"/>
	<path style="fill:#A5001C;" d="M148,247.2C148,246.4,148,246.4,148,247.2L148,247.2c-0.8-0.8-3.2-0.8-5.6-0.8c-3.2,0-5.6,0-5.6,0.8
		l0,0c0,0,0,0,0,0.8c0,0,0,0.8,0.8,0.8c0,0,2.4,0.8,5.6,0.8C145.6,248,148,248,148,247.2L148,247.2z"/>
	<path style="fill:#A5001C;" d="M151.2,241.6L151.2,241.6L151.2,241.6L151.2,241.6L151.2,241.6L151.2,241.6c0.8,0,0.8-0.8,0.8-1.6
		s-0.8-1.6-1.6-1.6l0,0c-0.8-0.8-1.6-0.8-2.4-0.8h-0.8l0,0l0,0l0,0l0,0l0,0c0,0,0-0.8-0.8-0.8l0,0c-0.8-0.8-0.8-0.8-2.4-0.8
		c-0.8,0-1.6,0-1.6,0.8l0,0c0.8,0,0.8-0.8,1.6-0.8c1.6,0,2.4,0.8,2.4,1.6l0,0v0.8c-0.8,0-0.8,0-1.6,0s-1.6,0-2.4-0.8c0,0,0,0,0-0.8
		l0,0l0,0V236c0,0,0-0.8-0.8-0.8c0,0,0.8,0,0.8-0.8l0,0l0,0l0,0l0,0c0,0,0-0.8-0.8-0.8v-0.8h0.8V232h-0.8v-0.8h-0.8v0.8H140v0.8h0.8
		v0.8c0,0-0.8,0-0.8,0.8l0,0l0,0c0,0,0,0.8,0.8,0.8c0,0,0,0-0.8,0l0,0l0,0l0,0l0,0l0,0l0,0l0,0c-0.8,0-0.8-0.8-1.6-0.8
		s-1.6,0-2.4,0.8l0,0c0,0-0.8,0-0.8,0.8l0,0l0,0l0,0l0,0l0,0h-0.8c-0.8,0-1.6,0-2.4,0.8l0,0c-0.8,0.8-1.6,0.8-1.6,1.6s0,0.8,0.8,1.6
		l0,0l0,0l0,0c0,0-0.8,0-0.8,0.8c0,0,0,0,0.8,0l0.8,0.8l0,0c0,0,0,0,0,0.8l0,0c0,0,0,0.8,0.8,0.8h0.8l0,0l0,0l0,0l0,0l0,0l0,0l0,0
		l0,0l0,0l0,0c0,0,0,0,0,0.8c1.6-0.8,3.2-0.8,5.6-0.8c2.4,0,4.8,0,5.6,0.8c0,0,0,0,0-0.8l0,0l0,0l0,0l0,0l0,0l0,0l0,0l0,0l0,0l0,0
		h0.8l0.8-0.8l0,0c0,0,0,0,0-0.8l0,0C151.2,243.2,151.2,242.4,151.2,241.6C151.2,242.4,152,242.4,151.2,241.6
		C152,242.4,152,241.6,151.2,241.6z M137.6,238.4L137.6,238.4C136.8,238.4,136.8,238.4,137.6,238.4
		C136.8,238.4,136.8,239.2,137.6,238.4C136.8,239.2,136.8,239.2,137.6,238.4C136.8,239.2,136.8,239.2,137.6,238.4c0,0.8,0,0.8,0,0.8
		l0,0l0,0l0,0c0,0,0,0-0.8,0s-1.6,0-1.6,0.8c0,0-0.8,0-0.8,0.8V240v-0.8c0-0.8,1.6-1.6,3.2-1.6C136.8,238.4,136.8,238.4,137.6,238.4
		L137.6,238.4L137.6,238.4L137.6,238.4L137.6,238.4L137.6,238.4z M141.6,238.4L141.6,238.4L141.6,238.4c-0.8,0.8-1.6,0.8-2.4,0.8
		c0,0-0.8,0-1.6,0v-0.8l0,0c0-0.8,0.8-1.6,2.4-1.6C140.8,237.6,141.6,237.6,141.6,238.4C141.6,237.6,141.6,237.6,141.6,238.4
		C141.6,237.6,141.6,237.6,141.6,238.4L141.6,238.4z M152,239.2C151.2,239.2,151.2,239.2,152,239.2
		C151.2,239.2,151.2,239.2,152,239.2z M151.2,240.8c0,0-0.8,0-0.8-0.8c-0.8,0-1.6-0.8-1.6-0.8s0,0-0.8,0l0,0l0,0l0,0l0,0l0,0l0,0
		l0,0l0,0l0,0l0,0l0,0l0,0l0,0l0,0l0,0h0.8c1.6,0,2.4,0.8,3.2,1.6C151.2,239.2,151.2,240,151.2,240.8
		C151.2,240,151.2,240.8,151.2,240.8z"/>
</g>
<g>
	<path style="fill:#D32030;" d="M100,231.2v-46.4h-0.8v1.6h-1.6v1.6h1.6v2.4c-1.6,0-2.4,1.6-2.4,3.2c0,0.8,0,0.8,0,1.6l0,0
		c0.8,0.8,1.6,1.6,2.4,1.6c-0.8,0-1.6,0.8-1.6,0.8s0,0,0-0.8s0-0.8-0.8-0.8s-0.8,0-0.8,0.8s0,0.8,0.8,0.8h0.8l-0.8,0.8l0,0
		c-1.6-0.8-4-1.6-7.2-1.6s-6.4,0.8-8,3.2l0,0c-0.8,0.8-2.4,1.6-2.4,2.4l0,0c0,0,0,0,0-0.8c0,0,0,0-0.8,0c0,0,0-0.8-0.8-0.8h-0.8
		c-0.8,0-1.6,0-3.2,0c-4,0-8,1.6-10.4,3.2l0.8-0.8c-3.2,1.6-4.8,4.8-4.8,8c0,1.6,0.8,4,1.6,4.8l0,0l0.8,0.8l0,0
		c-0.8,0-1.6,0.8-1.6,2.4c0,0,1.6,0,2.4,0.8s1.6,2.4,1.6,2.4l0,0c0,0.8,0,0.8,0,1.6c0.8,0.8,0.8,0.8,1.6,0c0.8,0.8,1.6,2.4,3.2,3.2
		c0.8,0.8,2.4,0.8,3.2,0.8c0,0,0,0,0.8,0l0,0H72c-0.8,0-0.8,0.8-0.8,0.8c0,0.8,0.8,0.8,0.8,0.8l0,0c0,0,0.8,0,1.6,0.8l0.8,1.6
		l1.6,0.8l0,0c0,0.8,0,1.6,0,1.6C82.4,232,91.2,231.2,100,231.2z M80.8,204.8c0-3.2,4-6.4,9.6-6.4c2.4,0,4.8,0.8,6.4,1.6v-0.8
		c0,0.8,0,1.6,0,2.4c0,0,0,0,0,0.8c0,0,0,0,0,0.8s0,1.6,0,2.4c-4,0-7.2,0.8-9.6,1.6c-1.6,0.8-3.2,0.8-5.6,1.6
		C81.6,208,80.8,206.4,80.8,204.8L80.8,204.8z M76,208.8c-2.4,0-4.8,0.8-8,1.6c-1.6,0.8-2.4,1.6-4,1.6c-0.8-0.8-0.8-1.6-0.8-3.2
		c0-0.8,0-1.6,0.8-2.4c1.6-3.2,6.4-4.8,12-4.8c1.6,0,2.4,0,3.2,0l0,0l0,0l0,0l0,0c0,0,0,0.8-0.8,0.8l0,0c-0.8,0-0.8,0-0.8,0.8
		s0,0.8,0.8,0.8v0.8c0,0-0.8,0-0.8,0.8s0,0.8,0.8,0.8l0,0v0.8c0,0,0,0,0,0.8C77.6,208.8,76.8,208.8,76,208.8z"/>
	<path style="fill:#D32030;" d="M100,233.6L100,233.6c-12.8,0-22.4,0.8-22.4,2.4l0,0c-0.8,0-1.6,1.6-1.6,2.4c0,0.8,0.8,2.4,2.4,2.4
		c0,1.6,9.6,2.4,21.6,2.4V233.6z"/>
	<path style="fill:#D32030;" d="M100,244.8H69.6v33.6c0,16.8,13.6,30.4,30.4,30.4V244.8z"/>
</g>
<g>
</g>
<g>
</g>
<g>
</g>
<g>
</g>
<g>
</g>
<g>
</g>
<g>
</g>
<g>
</g>
<g>
</g>
<g>
</g>
<g>
</g>
<g>
</g>
<g>
</g>
<g>
</g>
<g>
</g>
</svg>
